<?xml version="1.0" ?><!DOCTYPE svg  PUBLIC '-//W3C//DTD SVG 1.1//EN'  'http://www.w3.org/Graphics/SVG/1.1/DTD/svg11.dtd'><svg enable-background="new 0 0 48 48" height="48px" id="_x3C_Layer_x3E_" version="1.1" viewBox="0 0 48 48" width="48px" xml:space="preserve" xmlns="http://www.w3.org/2000/svg" xmlns:xlink="http://www.w3.org/1999/xlink"><g id="notification_x2C__alert_x2C__bell"><path d="M27.967,7.517c-0.021,0-0.043-0.001-0.065-0.004c-0.274-0.035-0.467-0.286-0.431-0.56   C27.49,6.804,27.5,6.653,27.5,6.5C27.5,4.57,25.93,3,24,3s-3.5,1.57-3.5,3.5c0,0.147,0.009,0.292,0.026,0.435   c0.034,0.274-0.161,0.523-0.435,0.557c-0.281,0.034-0.523-0.161-0.557-0.435C19.512,6.875,19.5,6.688,19.5,6.5   C19.5,4.019,21.519,2,24,2s4.5,2.019,4.5,4.5c0,0.197-0.013,0.391-0.038,0.582C28.43,7.333,28.215,7.517,27.967,7.517z" fill="#546E7A"/><path d="M24,46c-2.134,0-4.093-1.251-4.991-3.187c-0.116-0.25-0.007-0.548,0.243-0.664   c0.25-0.115,0.549-0.007,0.664,0.243C20.651,43.977,22.254,45,24,45c1.736,0,3.288-0.971,4.049-2.533   c0.121-0.248,0.421-0.352,0.668-0.231c0.249,0.121,0.352,0.42,0.231,0.668C28.018,44.814,26.122,46,24,46z" fill="#546E7A"/><path d="M9.251,35.008c-0.041,0-0.081-0.005-0.122-0.015c-0.268-0.067-0.431-0.338-0.363-0.606l1.739-6.937   c0.265-1.056,0.309-2.235,0.132-3.505C10.546,23.296,10.5,22.643,10.5,22c0-7.72,6.056-14,13.5-14s13.5,6.28,13.5,14   c0,0.643-0.046,1.296-0.136,1.944c-0.177,1.27-0.133,2.449,0.132,3.505l1.729,6.897c0.067,0.268-0.095,0.54-0.363,0.606   c-0.266,0.066-0.54-0.095-0.606-0.363l-1.729-6.897c-0.296-1.181-0.348-2.489-0.152-3.887C36.458,23.204,36.5,22.596,36.5,22   c0-7.168-5.607-13-12.5-13s-12.5,5.832-12.5,13c0,0.596,0.042,1.204,0.126,1.805c0.195,1.398,0.144,2.706-0.152,3.887l-1.739,6.937   C9.679,34.856,9.475,35.008,9.251,35.008z" fill="#546E7A"/><g><g><path d="M39.5,41h-31C7.122,41,6,39.878,6,38.5S7.122,36,8.5,36h31c1.378,0,2.5,1.122,2.5,2.5S40.878,41,39.5,41z      M8.5,37C7.673,37,7,37.673,7,38.5S7.673,40,8.5,40h31c0.827,0,1.5-0.673,1.5-1.5S40.327,37,39.5,37H8.5z" fill="#546E7A"/></g></g></g></svg>